<?xml version="1.0" encoding="UTF-8"?>
<svg id="Capa_1" data-name="Capa 1" xmlns="http://www.w3.org/2000/svg" viewBox="0 0 200 200">
  <defs>
    <style>
      .cls-1 {
        fill: #6691c7;
      }
    </style>
  </defs>
  <path class="cls-1" d="M159.69,40.31c1.45,1.45,3.8,1.45,5.25,0,1.45-1.45,1.45-3.8,0-5.25-1.45-1.45-3.79-1.45-5.25,0-1.45,1.45-1.45,3.79,0,5.25"/>
  <path class="cls-1" d="M12.42,180.16c0-1.98,.77-3.84,2.18-5.25l4.8-4.8,10.49,10.49-4.8,4.8c-1.4,1.4-3.27,2.18-5.25,2.18s-3.84-.77-5.25-2.18c-1.4-1.4-2.18-3.27-2.18-5.25m12.22-15.29l36.24-36.24,10.5,10.49-36.24,36.24-10.49-10.49Zm49.36-33.62l-5.25-5.25,9.67-9.67c1.65,1.85,3.4,3.59,5.25,5.25l-9.67,9.67Zm7.57-22.7c-8.33-10.56-12.74-23.27-12.74-36.76,0-32.74,26.64-59.37,59.38-59.37s59.37,26.64,59.37,59.37-26.64,59.38-59.37,59.38c-13.48,0-26.19-4.41-36.76-12.74-3.66-2.89-6.99-6.21-9.88-9.88M5,180.16c0,3.97,1.54,7.69,4.35,10.5,2.8,2.8,6.53,4.35,10.49,4.35s7.69-1.54,10.5-4.35l7.42-7.42,41.49-41.48c.7-.7,1.08-1.64,1.08-2.63s-.39-1.93-1.08-2.62l10.25-10.25c11.34,8.09,24.65,12.35,38.71,12.35,36.83,0,66.79-29.97,66.79-66.8S165.04,5,128.21,5,61.4,34.97,61.4,71.79c0,14.06,4.26,27.37,12.36,38.71l-10.26,10.25c-.7-.7-1.64-1.08-2.62-1.08s-1.93,.39-2.62,1.08L9.35,169.66c-2.81,2.8-4.35,6.53-4.35,10.49"/>
  <path class="cls-1" d="M153.09,58.04c-1.45-1.45-3.8-1.45-5.25,0l-23.36,23.36-15.93-15.93c-1.45-1.45-3.8-1.45-5.25,0-1.45,1.45-1.45,3.8,0,5.25l18.56,18.56c.72,.72,1.67,1.08,2.62,1.08s1.9-.36,2.62-1.08l25.98-25.98c1.45-1.45,1.45-3.79,0-5.25"/>
  <path class="cls-1" d="M76.25,71.8c0,28.64,23.31,51.95,51.95,51.95s51.96-23.31,51.96-51.95c0-8.27-2-16.52-5.8-23.83-.94-1.82-3.18-2.53-5-1.59-1.82,.94-2.53,3.18-1.59,5,3.29,6.35,4.97,13.22,4.97,20.41,0,24.55-19.98,44.53-44.54,44.53s-44.53-19.98-44.53-44.53,19.98-44.53,44.53-44.53c7.19,0,14.07,1.67,20.42,4.96,1.82,.94,4.06,.23,5-1.59,.94-1.82,.23-4.06-1.59-5-7.31-3.79-15.56-5.79-23.84-5.79-28.64,0-51.95,23.31-51.95,51.95"/>
</svg>