<?xml version="1.0" encoding="UTF-8"?>
<svg id="Capa_1" data-name="Capa 1" xmlns="http://www.w3.org/2000/svg" viewBox="0 0 200 200">
  <defs>
    <style>
      .cls-1 {
        fill: #80a047;
      }
    </style>
  </defs>
  <path class="cls-1" d="M188.45,187.59H11.55v-3.31H188.45v3.31Zm3.27-9.92H8.28c-1.82,0-3.28,1.48-3.28,3.31v9.91c0,1.82,1.46,3.31,3.28,3.31H191.73c1.81,0,3.27-1.48,3.27-3.31v-9.91c0-1.82-1.46-3.31-3.27-3.31"/>
  <path class="cls-1" d="M157.65,167.76h-10.47c-7.95,0-14.42-6.52-14.42-14.55V50.09c0-8.02,6.47-14.55,14.42-14.55h10.47c7.95,0,14.42,6.52,14.42,14.55v103.12c0,8.02-6.47,14.55-14.42,14.55m-10.48-125.61c-4.33,0-7.86,3.56-7.86,7.94v103.12c0,4.37,3.53,7.94,7.86,7.94h10.48c4.34,0,7.87-3.56,7.87-7.94V50.09c0-4.38-3.53-7.94-7.87-7.94h-10.48Z"/>
  <path class="cls-1" d="M106.47,167.76h-12.95c-7.27,0-13.18-5.97-13.18-13.3V78.59c0-7.33,5.91-13.3,13.18-13.3h12.94c3.52,0,6.83,1.38,9.33,3.89,2.48,2.52,3.86,5.86,3.86,9.41v75.87c0,7.33-5.91,13.3-13.18,13.3m-12.94-95.86c-3.66,0-6.63,3-6.63,6.69v75.86c0,3.7,2.97,6.69,6.63,6.69h12.94c3.66,0,6.63-2.99,6.63-6.69V78.59c0-1.79-.69-3.47-1.94-4.73-1.25-1.26-2.92-1.95-4.69-1.95h-12.94Z"/>
  <path class="cls-1" d="M55.64,167.76h-16.11c-6.4,0-11.6-5.25-11.6-11.7v-46.01c0-6.46,5.21-11.71,11.6-11.71h16.12c6.39,0,11.6,5.25,11.6,11.7v46.01c0,6.45-5.2,11.71-11.6,11.71m-16.12-62.8c-2.78,0-5.05,2.28-5.05,5.09v46.01c0,2.8,2.27,5.09,5.05,5.09h16.12c2.78,0,5.05-2.29,5.05-5.09v-46c0-2.81-2.27-5.09-5.05-5.09h-16.12Z"/>
  <path class="cls-1" d="M109.57,42.59l-16.55-16.7,30.33-13.92-13.79,30.61ZM128.52,6.77c-.97-.98-2.43-1.25-3.67-.67l-36.03,16.53c-.98,.44-1.68,1.35-1.87,2.42-.19,1.07,.15,2.16,.91,2.93l8.16,8.23C60.88,67.94,12.09,74.79,11.49,74.87c-1.79,.24-3.06,1.9-2.82,3.71,.21,1.67,1.62,2.87,3.24,2.87,.14,0,.28,0,.43-.02,2.55-.34,52.11-7.26,88.38-40.48l6.79,6.85c.62,.63,1.46,.97,2.32,.97,.2,0,.39-.01,.58-.05,1.06-.19,1.95-.9,2.4-1.88l16.38-36.36c.57-1.26,.3-2.73-.66-3.7"/>
</svg>