<?xml version="1.0" encoding="UTF-8"?>
<svg id="Capa_1" data-name="Capa 1" xmlns="http://www.w3.org/2000/svg" viewBox="0 0 200 200">
  <defs>
    <style>
      .cls-1 {
        fill: #5e3080;
      }
    </style>
  </defs>
  <path class="cls-1" d="M113.88,69.14c5.68,17.13,7.99,37.84,.06,54.21H41.56c-7.34-15.21-5.66-34.58-1.19-50.36,2.64-9.31,6.7-18.76,12.11-28.16h50.47c4.43,7.72,8.13,15.85,10.93,24.3m-9.85,72.55H51.43c2.02-4.9,4.53-9.24,7.39-12.77h37.86c2.84,3.52,5.34,7.86,7.35,12.77m-26.3,45.53c-5.97-9.14-16.11-26.07-16.11-32.97,0-2.43,.54-4.82,1.57-6.99h29.08c1.03,2.17,1.57,4.56,1.57,6.99,0,6.9-10.13,23.83-16.11,32.97m-57.29-56.03v-17.82l10.75-13.81c.07,4.48,.48,8.91,1.22,13.27,.69,4.03,1.88,7.93,3.54,11.64l-15.5,6.72ZM77.75,11.68c3.89,3.92,13.16,13.85,21.84,27.58H55.85c8.71-13.74,17.99-23.66,21.89-27.58m45.34,101.13c.73-4.36,1.13-8.78,1.19-13.26l10.74,13.81v17.82l-15.46-6.7c1.67-3.73,2.86-7.63,3.54-11.66m17.49-3.79c.09-2.84,4.21-2.84,4.3,0v30.46c0,1.19-.97,2.15-2.15,2.15s-2.15-.97-2.15-2.15v-30.46ZM14.87,139.49c-.09,2.85-4.21,2.84-4.3,0v-30.46c.09-2.84,4.22-2.84,4.3,0v30.46ZM192.22,22.26c1.54,0,2.78-1.25,2.78-2.78V7.79c0-1.52-1.27-2.78-2.78-2.78h-11.96c-1.54,0-2.78,1.25-2.78,2.78s1.25,2.78,2.78,2.78h5.24l-37.52,37.52-16.4-16.4c-1.07-1.07-2.86-1.07-3.93,0l-16.53,16.52c-7.96-15.49-18.6-30.62-31.47-42.47-1.26-.98-2.52-.98-3.78,0C52.62,27.37,34.71,58.27,31.54,90.03l-11.99,15.41c-1.29-2.45-3.87-4.13-6.83-4.13-4.26,0-7.72,3.46-7.72,7.72v30.46c0,4.26,3.46,7.72,7.72,7.72s7.72-3.46,7.72-7.72v-2.24l19.24-8.34c4.05,.25,8.18,0,12.24,0-2.84,4.24-5.27,9.21-7.13,14.65-.61,1.78,.76,3.68,2.64,3.68h9.78c-.75,2.24-1.14,4.6-1.14,6.99,0,11.05,17.4,36.67,19.38,39.55,1.09,1.58,3.5,1.58,4.59,0,1.98-2.89,19.38-28.5,19.38-39.55,0-2.39-.39-4.75-1.14-6.99h9.78c1.88,0,3.24-1.9,2.64-3.68-1.86-5.45-4.27-10.42-7.1-14.66,4.05,0,8.16,.19,12.21,0l19.23,8.34v2.24c0,4.26,3.46,7.72,7.72,7.72s7.72-3.46,7.72-7.72v-25.52h13.75c3.48,0,3.64-5.57,0-5.57h-13.78c-.69-7.7-10.92-9.73-14.52-2.96l-12-15.43c-.67-7.31-2.19-14.53-4.39-21.53l10.1-10.1,16.4,16.4c1.07,1.07,2.86,1.07,3.93,0l39.48-39.49V108.4h-9.18c-3.49,0-3.65,5.57,0,5.57h11.96c1.54,0,2.78-1.25,2.78-2.78V28.57c0-2.43-3.04-3.68-4.75-1.97l-42.27,42.27-16.4-16.4c-1.09-1.09-2.85-1.09-3.93,0l-10.14,10.14c-1.13-3.03-2.4-6.07-3.8-9.11l15.91-15.91,16.4,16.4c1.07,1.07,2.86,1.07,3.93,0L189.43,14.51v4.97c0,1.54,1.25,2.78,2.78,2.78"/>
  <path class="cls-1" d="M77.73,55.41c-3.07,0-6.1,.5-9.02,1.47-1.46,.49-2.24,2.07-1.76,3.53,.49,1.46,2.07,2.24,3.53,1.76,14.53-5.11,30.46,6.47,30.21,21.95,0,12.76-10.3,23.14-22.96,23.14-19.2,.08-29.98-22.86-17.82-37.71,2.21-2.95-1.92-6.28-4.33-3.5-15.05,18.49-1.71,46.86,22.15,46.78,37.83-1.57,37.83-55.84,0-57.41"/>
  <path class="cls-1" d="M77.73,70.63c7.37,0,13.37,6.05,13.37,13.48-.74,17.88-26,17.88-26.73,0,0-7.43,6-13.48,13.37-13.48m0,32.52c10.44,0,18.93-8.54,18.93-19.05-1.04-25.26-36.82-25.26-37.86,0,0,10.5,8.49,19.05,18.93,19.05"/>
  <path class="cls-1" d="M28.54,149.34c-1.54,0-2.78,1.25-2.78,2.78v17.7c0,1.53,1.25,2.78,2.78,2.78s2.78-1.25,2.78-2.78v-17.7c0-1.54-1.25-2.78-2.78-2.78"/>
  <path class="cls-1" d="M40,164.65c-1.54,0-2.78,1.25-2.78,2.78v24.78c0,1.54,1.25,2.78,2.78,2.78s2.78-1.25,2.78-2.78v-24.78c0-1.54-1.25-2.78-2.78-2.78"/>
  <path class="cls-1" d="M126.91,149.34c-1.54,0-2.78,1.25-2.78,2.78v17.7c0,1.53,1.25,2.78,2.78,2.78s2.78-1.25,2.78-2.78v-17.7c0-1.54-1.25-2.78-2.78-2.78"/>
  <path class="cls-1" d="M115.45,164.65c-1.54,0-2.78,1.25-2.78,2.78v24.78c0,1.54,1.25,2.78,2.78,2.78s2.78-1.25,2.78-2.78v-24.78c0-1.54-1.25-2.78-2.78-2.78"/>
</svg>