<?xml version="1.0" encoding="UTF-8"?>
<svg id="Capa_1" data-name="Capa 1" xmlns="http://www.w3.org/2000/svg" viewBox="0 0 200 200">
  <defs>
    <style>
      .cls-1 {
        fill: #c7702b;
      }
    </style>
  </defs>
  <path class="cls-1" d="M49.23,73.93l2.34,13.62-12.23-6.43c-.64-.34-1.35-.51-2.05-.51s-1.4,.17-2.05,.51l-12.23,6.43,2.34-13.62c.25-1.43-.23-2.88-1.27-3.89l-9.89-9.64,13.68-1.99c1.43-.21,2.67-1.11,3.31-2.41l6.12-12.39,6.11,12.39c.64,1.3,1.88,2.2,3.31,2.41l13.68,1.99-9.89,9.64c-1.04,1.01-1.51,2.47-1.27,3.9m5.4-.4l10.96-10.68c1.21-1.18,1.64-2.91,1.11-4.51-.52-1.61-1.88-2.76-3.55-3l-15.14-2.2-6.77-13.72c-.75-1.51-2.26-2.45-3.95-2.45h0c-1.69,0-3.2,.94-3.95,2.45l-6.77,13.72-15.14,2.2c-1.67,.24-3.03,1.39-3.55,3-.52,1.61-.1,3.33,1.11,4.51l10.96,10.68-2.59,15.08c-.29,1.66,.38,3.31,1.75,4.31,.77,.56,1.68,.84,2.59,.84,.7,0,1.4-.17,2.05-.51l13.54-7.12,13.55,7.12c1.49,.78,3.27,.66,4.63-.33,1.36-.99,2.04-2.64,1.75-4.31l-2.59-15.08Z"/>
  <path class="cls-1" d="M175.92,70.04c-1.04,1.01-1.51,2.47-1.27,3.9l2.34,13.62-12.23-6.43c-1.28-.67-2.81-.67-4.1,0l-12.23,6.43,2.34-13.62c.25-1.43-.23-2.88-1.27-3.9l-9.89-9.64,13.68-1.99c1.43-.21,2.67-1.11,3.31-2.41l6.12-12.39,6.11,12.39c.64,1.3,1.88,2.2,3.31,2.41l13.68,1.99-9.89,9.64Zm16.2-11.7c-.52-1.61-1.88-2.75-3.55-3l-15.14-2.2-6.77-13.72c-.74-1.51-2.26-2.45-3.95-2.45s-3.2,.94-3.95,2.46l-6.77,13.72-15.14,2.2c-1.67,.25-3.03,1.39-3.55,3-.52,1.61-.1,3.34,1.11,4.51l10.96,10.68-2.59,15.08c-.29,1.66,.38,3.31,1.75,4.3,1.37,.99,3.14,1.12,4.64,.33l13.54-7.12,13.55,7.12c.65,.34,1.35,.51,2.05,.51,.91,0,1.81-.28,2.58-.84,1.36-.99,2.04-2.64,1.75-4.31l-2.59-15.08,10.96-10.68c1.21-1.18,1.64-2.91,1.11-4.51"/>
  <path class="cls-1" d="M146.25,173.27c-1.23-.84-2.9-.53-3.75,.69-5.51,8.01-14.59,12.79-24.29,12.79-14.07,0-26.23-10.02-28.92-23.83l-1.62-8.34c-.16-.84-.47-1.64-.91-2.37l-18.33-30.45c-1.26-2.09-.92-4.74,.82-6.44,1.03-1,2.37-1.54,3.81-1.5,1.43,.04,2.76,.64,3.72,1.7l12.23,13.34c.98,1.06,2.47,1.41,3.82,.89,1.35-.52,2.22-1.79,2.22-3.24v-27.41c0-1.49-1.21-2.7-2.7-2.7s-2.69,1.21-2.69,2.7v22.49l-8.9-9.71c-1.97-2.14-4.65-3.37-7.56-3.44-2.9-.08-5.65,1-7.73,3.04-3.52,3.46-4.2,8.83-1.66,13.07l18.33,30.45c.12,.2,.2,.41,.24,.62l1.63,8.34c3.18,16.33,17.57,28.19,34.21,28.19,11.48,0,22.21-5.65,28.73-15.12,.85-1.23,.54-2.91-.69-3.75"/>
  <path class="cls-1" d="M143.12,101.87c-1.89,0-3.66,.53-5.16,1.44-1.4-3.81-5.06-6.54-9.35-6.54-2.04,0-3.93,.62-5.51,1.66-1.59-3.38-5.03-5.72-9-5.72-1.64,0-3.19,.4-4.56,1.11v-15.57l9.31,4.89c.74,.39,1.55,.58,2.35,.58,1.04,0,2.07-.33,2.96-.97,1.56-1.13,2.33-3.02,2-4.92l-3.63-21.2,2.35-2.3c1.07-1.04,1.09-2.74,.05-3.81-1.04-1.07-2.74-1.09-3.81-.05l-2.49,2.43c-1.19,1.15-1.73,2.82-1.44,4.45l3.54,20.67-11.18-5.88v-3.55c0-5.49-4.46-9.95-9.95-9.95s-9.95,4.46-9.95,9.95v3.78l-10.74,5.64,3.55-20.67c.28-1.63-.26-3.3-1.45-4.45l-15.02-14.64,20.75-3.02c1.64-.24,3.06-1.27,3.79-2.75l9.28-18.81,9.28,18.81c.73,1.48,2.15,2.51,3.79,2.75l20.76,3.02-4.13,4.02c-1.07,1.04-1.08,2.75-.04,3.81,1.04,1.07,2.74,1.09,3.81,.05l4.65-4.53c1.38-1.35,1.87-3.33,1.27-5.16-.59-1.84-2.15-3.15-4.06-3.42l-21.28-3.09-9.52-19.28c-.86-1.73-2.59-2.8-4.52-2.8s-3.66,1.07-4.51,2.8l-9.52,19.28-21.28,3.09c-1.91,.28-3.47,1.59-4.07,3.42-.6,1.84-.11,3.81,1.28,5.16l15.4,15.01-3.63,21.19c-.33,1.9,.44,3.79,2,4.93,.88,.64,1.92,.97,2.96,.97,.8,0,1.61-.2,2.35-.58l8.87-4.66v9.08c0,1.49,1.2,2.7,2.69,2.7s2.7-1.21,2.7-2.7v-18.95c0-2.51,2.04-4.56,4.56-4.56s4.56,2.05,4.56,4.56v45.11c0,1.49,1.21,2.7,2.7,2.7s2.69-1.21,2.69-2.7v-11.05c0-2.51,2.05-4.56,4.56-4.56s4.56,2.04,4.56,4.56v15.11c0,1.49,1.2,2.69,2.69,2.69s2.69-1.2,2.69-2.69v-11.05c0-2.51,2.05-4.56,4.56-4.56s4.56,2.05,4.56,4.56v16.15c0,1.49,1.21,2.7,2.7,2.7s2.69-1.21,2.69-2.7v-11.05c0-2.51,2.05-4.56,4.56-4.56s4.56,2.05,4.56,4.56v45.47c0,2.39-.29,4.77-.86,7.08-.36,1.44,.53,2.91,1.97,3.26,.22,.05,.44,.08,.65,.08,1.21,0,2.31-.82,2.61-2.05,.67-2.73,1.01-5.55,1.01-8.37v-45.47c0-5.48-4.46-9.95-9.95-9.95"/>
</svg>