<?xml version="1.0" encoding="UTF-8"?>
<svg id="Capa_1" data-name="Capa 1" xmlns="http://www.w3.org/2000/svg" viewBox="0 0 200 200">
  <defs>
    <style>
      .cls-1 {
        fill: #a80052;
      }
    </style>
  </defs>
  <path class="cls-1" d="M195,157.89v-16.73h-17.85v-11.15h-5.95v-9.3h5.95v-16.73h-44.49v5.58h38.91v5.58H56.18v5.58h109.45v9.3H44.23c-2.57,0-4.65-2.09-4.65-4.65s2.08-4.65,4.65-4.65h6.37v-5.58h-6.37c-5.64,0-10.22,4.58-10.22,10.22s4.58,10.22,10.22,10.22h127.35v5.58H75.46v5.58h113.96v5.58H31.96c-8.71,0-15.8,7.09-15.8,15.8s7.09,15.8,15.8,15.8H163.32v-5.58H31.96c-5.64,0-10.22-4.58-10.22-10.22s4.58-10.22,10.22-10.22H183.47v9.3H59.84v5.58h123.63v5.58h-14.58v5.58h20.53v5.58H31.96c-11.79,0-21.38-9.59-21.38-21.38s9.59-21.38,21.38-21.38h37.93v-5.58h-25.66c-8.71,0-15.8-7.09-15.8-15.8s7.09-15.8,15.8-15.8H127.09v-5.58H44.23c-11.79,0-21.38,9.59-21.38,21.38,0,6.3,2.74,11.97,7.09,15.89-13.93,1.04-24.94,12.69-24.94,26.87s12.09,26.96,26.96,26.96H195v-16.73h-5.95v-20.45h5.95Z"/>
  <path class="cls-1" d="M61.89,42.72l38.11,12.7,38.11-12.7v21.84h-6.88v5.58h6.88v5.58h-12.08v5.58h12.08v3.36c-3.59,1.75-15.15,6.31-38.11,6.31s-34.53-4.56-38.11-6.3V42.72Zm105.97,28.73v8.36h-9.29v-8.36c0-2.57,2.08-4.65,4.65-4.65s4.64,2.08,4.64,4.65m-111.54,16.36l1.24,.83c.49,.32,12.2,7.9,42.45,7.9s41.96-7.58,42.45-7.9l1.24-.83V40.86l16.73-5.58v26.32c-4.28,1.22-7.44,5.17-7.44,9.84v13.94h20.45v-13.94c0-4.67-3.15-8.62-7.44-9.84v-28.19l9.75-3.25-29.29-9.76-1.76,5.29,13.41,4.47-58.11,19.37L41.89,30.17,100,10.8l39.41,13.14,1.76-5.29L100,4.92,24.26,30.17l32.06,10.69v46.95Z"/>
</svg>