<?xml version="1.0" encoding="UTF-8"?>
<svg id="Capa_1" data-name="Capa 1" xmlns="http://www.w3.org/2000/svg" viewBox="0 0 200 200">
  <defs>
    <style>
      .cls-1 {
        fill: #e5a439;
      }
    </style>
  </defs>
  <path class="cls-1" d="M98.52,10.94c11.46,0,20.78,9.32,20.78,20.78s-9.33,20.78-20.78,20.78-20.78-9.32-20.78-20.78,9.33-20.78,20.78-20.78m0,47.5c14.73,0,26.72-11.99,26.72-26.72s-11.98-26.72-26.72-26.72-26.72,11.99-26.72,26.72,11.98,26.72,26.72,26.72"/>
  <path class="cls-1" d="M14.53,153.44l21.64-38.48,21.64,38.48H14.53Zm50.92,4.47c.54-.91,.54-2.04,.02-2.95l-26.72-47.5c-1.05-1.87-4.12-1.87-5.17,0L6.87,154.95c-.52,.92-.51,2.04,.03,2.95,.53,.91,1.51,1.47,2.56,1.47H62.89c1.06,0,2.03-.56,2.56-1.47"/>
  <path class="cls-1" d="M187.58,153.44h-41.56v-41.56h41.56v41.56Zm5.94-44.53c0-1.64-1.33-2.97-2.97-2.97h-47.5c-1.64,0-2.97,1.33-2.97,2.97v47.5c0,1.64,1.33,2.97,2.97,2.97h47.5c1.64,0,2.97-1.33,2.97-2.97v-47.5Z"/>
  <path class="cls-1" d="M98.52,174.22c-13.78,0-27.15-3.94-38.67-11.4l-3.23,4.99c12.48,8.08,26.97,12.35,41.9,12.35s30.44-4.58,43.23-13.23l-3.33-4.92c-11.8,7.99-25.6,12.21-39.9,12.21"/>
  <path class="cls-1" d="M169.71,100.11l5.93-.23c-1.11-28.35-17.65-53.73-43.16-66.25l-2.62,5.33c23.55,11.55,38.82,34.99,39.85,61.15"/>
  <path class="cls-1" d="M27.49,108.67c-.15-1.87-.22-3.79-.22-5.7,0-27.4,15.29-51.92,39.9-64l-2.61-5.33c-26.66,13.09-43.22,39.65-43.22,69.34,0,2.07,.08,4.14,.24,6.18l5.92-.47Z"/>
  <path class="cls-1" d="M54.85,26.65l4.2,4.2,8.91-8.91c1.16-1.16,1.16-3.04,0-4.2l-8.91-8.91-4.2,4.2,3.84,3.84h-19.55v5.93h19.55l-3.84,3.84Z"/>
  <path class="cls-1" d="M181.64,73.28c.76,0,1.52-.29,2.1-.87l8.91-8.91-4.2-4.2-3.84,3.84v-19.55h-5.93v19.55l-3.84-3.84-4.2,4.2,8.91,8.91c.58,.58,1.34,.87,2.1,.87"/>
  <path class="cls-1" d="M34.07,166.18l-8.91,8.91,4.2,4.2,3.84-3.84v19.55h5.94v-19.55l3.84,3.84,4.2-4.2-8.91-8.91c-1.15-1.16-3.04-1.16-4.2,0"/>
  <path class="cls-1" d="M125.23,100c0-9.51-5.12-18.38-13.36-23.14l-2.98,5.14c6.41,3.71,10.39,10.6,10.39,18,0,9.68-6.67,17.82-15.64,20.11l3.46-6.9-5.31-2.66-5.94,11.88c-.57,1.14-.35,2.52,.56,3.42l8.91,8.91,4.2-4.2-4.64-4.64c11.66-2.87,20.35-13.38,20.35-25.92"/>
  <path class="cls-1" d="M85.16,123.15l2.97-5.14c-6.41-3.71-10.39-10.61-10.39-18.01,0-9.68,6.67-17.82,15.64-20.11l-3.46,6.91,5.31,2.66,5.94-11.87c.57-1.15,.35-2.52-.56-3.43l-8.91-8.91-4.2,4.2,4.64,4.64c-11.66,2.87-20.35,13.39-20.35,25.92,0,9.52,5.12,18.38,13.37,23.15"/>
</svg>