<?xml version="1.0" encoding="UTF-8"?>
<svg id="Capa_1" data-name="Capa 1" xmlns="http://www.w3.org/2000/svg" viewBox="0 0 200 200">
  <defs>
    <style>
      .cls-1 {
        fill: #fff;
      }
    </style>
  </defs>
  <path class="cls-1" d="M100,195c-52.38,0-95-42.62-95-95S47.62,5,100,5s95,42.62,95,95-42.61,95-95,95Zm0-182.79C51.59,12.21,12.21,51.59,12.21,100s39.38,87.79,87.79,87.79,87.79-39.39,87.79-87.79S148.41,12.21,100,12.21Z"/>
  <path class="cls-1" d="M86.07,155.25h22.25v-55.71h15.52l1.66-18.66h-17.18v-10.62c0-4.4,.88-6.14,5.14-6.14h12.04v-19.36h-15.41c-16.56,0-24.02,7.29-24.02,21.25v14.87h-11.57v18.89h11.57v55.48Z"/>
</svg>