<?xml version="1.0" encoding="UTF-8"?>
<svg id="Capa_1" data-name="Capa 1" xmlns="http://www.w3.org/2000/svg" viewBox="0 0 200 200">
  <defs>
    <style>
      .cls-1 {
        fill: #fff;
      }
    </style>
  </defs>
  <path class="cls-1" d="M100,195c-52.38,0-95-42.62-95-95S47.62,5,100,5s95,42.62,95,95-42.61,95-95,95Zm0-182.79C51.59,12.21,12.21,51.59,12.21,100s39.38,87.79,87.79,87.79,87.79-39.39,87.79-87.79S148.41,12.21,100,12.21Z"/>
  <g>
    <path class="cls-1" d="M100,58.92c13.38,0,14.97,.05,20.25,.29,4.89,.22,7.54,1.04,9.31,1.73,2.34,.91,4.01,1.99,5.76,3.75,1.75,1.75,2.84,3.42,3.75,5.76,.69,1.77,1.5,4.42,1.73,9.31,.24,5.28,.29,6.87,.29,20.25s-.05,14.97-.29,20.25c-.22,4.89-1.04,7.54-1.73,9.31-.91,2.34-1.99,4.01-3.75,5.76-1.75,1.75-3.42,2.84-5.76,3.75-1.77,.69-4.42,1.5-9.31,1.73-5.28,.24-6.87,.29-20.25,.29s-14.97-.05-20.25-.29c-4.89-.22-7.54-1.04-9.3-1.73-2.34-.91-4.01-2-5.76-3.75-1.75-1.75-2.84-3.42-3.75-5.76-.69-1.77-1.5-4.42-1.73-9.31-.24-5.28-.29-6.87-.29-20.25s.05-14.97,.29-20.25c.22-4.89,1.04-7.54,1.73-9.31,.91-2.34,2-4.01,3.75-5.76,1.75-1.75,3.42-2.84,5.76-3.75,1.77-.69,4.42-1.5,9.3-1.73,5.28-.24,6.87-.29,20.25-.29m0-9.03c-13.61,0-15.32,.06-20.66,.3-5.33,.24-8.98,1.09-12.16,2.33-3.3,1.28-6.09,2.99-8.88,5.78-2.79,2.79-4.5,5.58-5.78,8.88-1.24,3.19-2.09,6.83-2.33,12.16-.24,5.35-.3,7.05-.3,20.66s.06,15.32,.3,20.66c.24,5.33,1.09,8.98,2.33,12.16,1.28,3.29,2.99,6.09,5.78,8.88,2.79,2.79,5.58,4.5,8.88,5.78,3.19,1.24,6.83,2.09,12.16,2.33,5.35,.24,7.05,.3,20.66,.3s15.32-.06,20.66-.3c5.33-.24,8.98-1.09,12.16-2.33,3.3-1.28,6.09-2.99,8.88-5.78,2.79-2.79,4.5-5.58,5.78-8.88,1.24-3.19,2.09-6.83,2.33-12.16,.24-5.35,.3-7.05,.3-20.66s-.06-15.32-.3-20.66c-.24-5.33-1.09-8.98-2.33-12.16-1.28-3.3-2.99-6.09-5.78-8.88-2.79-2.79-5.58-4.5-8.88-5.78-3.19-1.24-6.83-2.09-12.16-2.33-5.35-.24-7.05-.3-20.66-.3"/>
    <path class="cls-1" d="M100,74.27c-14.21,0-25.73,11.52-25.73,25.73s11.52,25.73,25.73,25.73,25.73-11.52,25.73-25.73-11.52-25.73-25.73-25.73m0,42.44c-9.23,0-16.7-7.48-16.7-16.7s7.48-16.7,16.7-16.7,16.7,7.48,16.7,16.7-7.48,16.7-16.7,16.7"/>
    <path class="cls-1" d="M132.77,73.25c0,3.32-2.69,6.01-6.01,6.01s-6.01-2.69-6.01-6.01,2.69-6.01,6.01-6.01,6.01,2.69,6.01,6.01"/>
  </g>
</svg>