<?xml version="1.0" encoding="UTF-8"?>
<svg id="Capa_1" data-name="Capa 1" xmlns="http://www.w3.org/2000/svg" viewBox="0 0 200 200">
  <defs>
    <style>
      .cls-1 {
        fill: #fff;
      }
    </style>
  </defs>
  <path class="cls-1" d="M100,195c-52.38,0-95-42.62-95-95S47.62,5,100,5s95,42.62,95,95-42.62,95-95,95Zm0-182.8C51.59,12.2,12.2,51.59,12.2,100s39.38,87.8,87.8,87.8,87.8-39.39,87.8-87.8S148.41,12.2,100,12.2Z"/>
  <path class="cls-1" d="M144.83,96.96h-42.89v12.71h30.38c-1.49,17.87-16.38,25.42-30.38,25.42-17.97,0-33.56-14.1-33.56-33.86s14.89-34.06,33.56-34.06c14.4,0,22.94,9.23,22.94,9.23l8.94-9.23s-11.42-12.71-32.27-12.71c-26.51,0-47.06,22.44-47.06,46.57s19.36,46.86,47.76,46.86c25.02,0,43.29-17.18,43.29-42.5,0-5.36-.7-8.44-.7-8.44h0Z"/>
</svg>