<?xml version="1.0" encoding="UTF-8"?>
<svg id="Capa_1" data-name="Capa 1" xmlns="http://www.w3.org/2000/svg" viewBox="0 0 200 200">
  <defs>
    <style>
      .cls-1 {
        fill: #fff;
      }

      .cls-2 {
        fill: #edc84b;
      }
    </style>
  </defs>
  <polygon class="cls-1" points="147.5 17.73 52.5 17.73 5 100 52.5 182.27 147.5 182.27 195 100 147.5 17.73"/>
  <g>
    <path class="cls-2" d="M34.41,138.33c-.05,.02-.09,.05-.14,.07l3.58,6.21c1.22-.94,1.77-2.58,1.21-4.11-.68-1.88-2.77-2.85-4.65-2.17Z"/>
    <path class="cls-2" d="M74.63,132.08l-7.29-20.02-8.87,36.41c8.77,4.71,16.04,11.79,20.99,20.41,1.22-.83,2.54-1.51,3.96-2.03l13.64-4.97c1.42-.52,2.87-.85,4.34-.99-1.75-9.77-.73-19.88,2.96-29.12l-30.2-22.19,7.29,20.02c4.48-.04,8.71,2.72,10.33,7.16,2.05,5.64-.87,11.9-6.51,13.96-5.64,2.05-11.9-.87-13.96-6.51-1.62-4.45-.15-9.28,3.31-12.13Z"/>
    <polygon class="cls-2" points="15.8 98.5 14.7 95.49 12.22 99.8 15.8 98.5"/>
    <path class="cls-2" d="M82.79,143.9c1.88-.68,2.85-2.77,2.17-4.65-.68-1.88-2.77-2.85-4.65-2.17s-2.85,2.77-2.17,4.65c.68,1.88,2.77,2.85,4.65,2.17Z"/>
    <path class="cls-2" d="M21.69,104.08l-5.98,2.18,11.66,20.2c-1.72-12.38,1.42-25.3,9.41-35.65l-14.18,5.16,1.26,3.46c.69,1.88-.29,3.97-2.17,4.65Z"/>
    <path class="cls-2" d="M118.76,115.36c1.88-.68,2.85-2.77,2.17-4.65-.68-1.88-2.77-2.85-4.65-2.17-1.88,.68-2.85,2.77-2.17,4.65,.68,1.88,2.77,2.85,4.65,2.17Z"/>
    <rect class="cls-2" x="103.47" y="57.77" width="7.26" height="7.26" transform="translate(-14.54 40.34) rotate(-20)"/>
    <path class="cls-2" d="M60.37,82.28c1.88-.68,2.85-2.77,2.17-4.65-.68-1.88-2.77-2.85-4.65-2.17-1.88,.68-2.85,2.77-2.17,4.65,.68,1.88,2.77,2.85,4.65,2.17Z"/>
    <path class="cls-2" d="M143.86,23.93H56.02L19.44,87.29l.69,1.91,28.1-10.23c-.04-4.48,2.72-8.71,7.16-10.33,4.45-1.62,9.28-.15,12.13,3.31l28.1-10.23-1.24-3.41c-.69-1.88,.29-3.97,2.17-4.65l13.64-4.97c1.88-.69,3.97,.29,4.65,2.17l4.97,13.64c.69,1.88-.29,3.97-2.17,4.65l-13.64,4.97c-1.88,.69-3.97-.29-4.65-2.17l-1.24-3.41-14.18,5.16c15.11,3.31,27.39,13.69,33.39,27.36,4.52-.08,8.81,2.68,10.44,7.16,2.05,5.64-.87,11.9-6.51,13.96-5.64,2.05-11.9-.87-13.96-6.51-1.6-4.41-.17-9.19,3.22-12.05-7.06-15.62-23.66-25.25-40.56-23.55-.45,3.98-3.08,7.56-7.09,9.02-4.01,1.46-8.33,.4-11.24-2.35-14.04,9.56-20.57,27.6-15.94,44.11,4.44,.01,8.61,2.76,10.21,7.17,1.78,4.88-.17,10.22-4.39,12.91l14.52,25.15h17.35c.27-.56,.55-1.11,.86-1.63-4.64-9.09-12.21-16.41-21.5-20.74-1.57-.73-2.4-2.47-1.99-4.15l12.39-50.86s0,0,0,0c0-.02,.01-.04,.01-.05,.61-2.33,3.3-3.45,5.39-2.19,.07,.05,.15,.09,.22,.14,.02,.01,.03,.02,.05,.03,0,0,0,0,0,0l42.18,31c1.39,1.02,1.87,2.89,1.14,4.46-4.33,9.28-5.42,19.75-3.14,29.7,.69,.24,1.36,.51,2.03,.83,4.4,2.11,7.73,5.78,9.39,10.34,.39,1.08,.23,2.21-.32,3.12h23.78l43.92-76.07L143.86,23.93Z"/>
    <path class="cls-2" d="M111.76,172.24c-2.89-3.54-7.83-5.13-12.22-3.54l-13.64,4.97c-1.44,.52-2.68,1.37-3.73,2.4h19.05l10.53-3.83Z"/>
  </g>
</svg>