<?xml version="1.0" encoding="UTF-8"?>
<svg id="Capa_1" data-name="Capa 1" xmlns="http://www.w3.org/2000/svg" viewBox="0 0 200 200">
  <defs>
    <style>
      .cls-1 {
        fill: #fff;
      }

      .cls-2 {
        fill: #ce6f2a;
      }
    </style>
  </defs>
  <polygon class="cls-1" points="147.5 17.73 52.5 17.73 5 100 52.5 182.27 147.5 182.27 195 100 147.5 17.73"/>
  <g>
    <path class="cls-2" d="M67.83,92.48c-.84,.3-1.64,.65-2.43,1.03-.12,.06-.24,.11-.36,.17-.77,.38-1.51,.78-2.23,1.22-.09,.06-.19,.12-.28,.17-7.07,4.41-11.72,11.69-12.95,19.7-.01,.09-.02,.18-.04,.27-.11,.77-.19,1.55-.23,2.33,0,.13-.02,.25-.02,.38-.08,1.72,0,3.46,.25,5.19,.03,.19,.06,.37,.09,.56,.11,.66,.24,1.33,.4,1.99,.05,.23,.11,.46,.17,.69,.22,.83,.46,1.66,.76,2.49,5.33,14.63,21.56,22.2,36.19,16.88,.84-.3,1.64-.65,2.43-1.03,.12-.06,.24-.11,.36-.17,.77-.38,1.51-.78,2.23-1.22,.09-.06,.19-.12,.28-.17,7.07-4.41,11.72-11.7,12.95-19.7,.01-.09,.02-.18,.04-.26,.11-.77,.19-1.55,.23-2.33,0-.13,.02-.26,.02-.39,.08-1.72,0-3.46-.25-5.19-.03-.19-.06-.37-.09-.56-.11-.67-.24-1.33-.4-1.99-.05-.23-.11-.46-.17-.69-.22-.83-.46-1.66-.76-2.49-5.33-14.63-21.56-22.2-36.19-16.88Z"/>
    <path class="cls-2" d="M143.82,23.93H55.98L20.52,85.35c2.68-.13,5.26,1.45,6.22,4.1l1.59,4.36,1.43-.52-1.62-12.26c-.77-5.85,2.56-11.35,8.11-13.37l39.82-14.49c5.55-2.02,11.64,.05,14.81,5.03l6.64,10.43,10.89-3.97c5.09-1.85,10.73,.78,12.59,5.87l20.98,57.64c1.85,5.09-.78,10.73-5.87,12.59l-20.47,7.45c-5.57,7.3-13.07,12.82-21.72,15.97-8.65,3.15-17.94,3.74-26.9,1.73l-13.97,5.09,2.93,5.08h87.84l43.92-76.07L143.82,23.93Z"/>
    <path class="cls-2" d="M78.38,59.5l-39.82,14.49c-2.55,.93-4.09,3.46-3.74,6.16l1.42,10.78,3.09-1.12c5.57-7.3,13.07-12.82,21.72-15.97,8.65-3.15,17.94-3.75,26.9-1.73l3.09-1.12-5.84-9.17c-1.46-2.29-4.27-3.25-6.82-2.32Z"/>
    <path class="cls-2" d="M133.81,134.43c1.6-.58,2.42-2.35,1.84-3.95l-20.98-57.64c-.58-1.6-2.35-2.42-3.95-1.84l-12.66,4.61c11.38,5.4,20.28,15.14,24.59,26.97,4.31,11.83,3.74,25.02-1.5,36.47l12.66-4.61Z"/>
    <path class="cls-2" d="M76.97,77.69c-4.65,.05-9.23,.89-13.62,2.49-4.39,1.6-8.44,3.9-12.03,6.85-2.9,2.37-5.46,5.14-7.62,8.22-7.77,11.08-9.65,25.25-5.05,37.9,4.61,12.66,15.16,22.3,28.23,25.79,3.63,.97,7.37,1.44,11.12,1.4,9.3-.11,18.47-3.45,25.65-9.34,2.9-2.37,5.46-5.14,7.62-8.22,7.77-11.08,9.65-25.25,5.05-37.9-4.61-12.66-15.16-22.3-28.23-25.79-3.63-.97-7.37-1.44-11.12-1.4Zm33.38,29.36h0s0,0,0,0c0,0,0,0,0,0,.27,.73,.5,1.47,.71,2.21,.06,.2,.11,.4,.17,.6,.18,.65,.34,1.3,.47,1.95,.02,.11,.05,.22,.08,.33,.14,.72,.26,1.44,.36,2.15,.03,.26,.06,.51,.09,.77,.06,.54,.11,1.08,.14,1.62,.02,.28,.04,.56,.05,.85,.02,.6,.03,1.21,.03,1.81,0,.34-.01,.68-.03,1.02-.02,.41-.04,.82-.07,1.24-.04,.54-.1,1.09-.16,1.63-.05,.38-.1,.77-.16,1.15-.06,.4-.13,.8-.21,1.19-.06,.31-.13,.62-.2,.94-.07,.34-.13,.68-.22,1.01-.02,.07-.05,.13-.07,.2-2.11,8.17-7.15,15.47-14.35,20.31-.03,.02-.05,.04-.07,.06-.16,.11-.34,.21-.5,.31-.31,.2-.63,.4-.95,.59-.23,.14-.46,.27-.69,.4-.35,.2-.7,.39-1.06,.58-.22,.11-.43,.23-.65,.34-.4,.2-.81,.39-1.23,.57-.18,.08-.37,.17-.55,.25-.6,.26-1.21,.5-1.83,.73,0,0,0,0,0,0s0,0,0,0c-18.12,6.6-38.23-2.78-44.83-20.9h0s0,0,0,0c-.27-.73-.5-1.47-.71-2.21-.06-.2-.11-.4-.17-.6-.18-.65-.34-1.3-.47-1.95-.02-.11-.05-.22-.07-.33-.14-.72-.26-1.44-.36-2.15-.04-.26-.06-.51-.09-.77-.06-.54-.11-1.08-.14-1.62-.02-.28-.04-.56-.05-.85-.02-.6-.03-1.21-.03-1.81,0-.34,.01-.68,.03-1.02,.02-.41,.04-.82,.07-1.24,.04-.54,.1-1.09,.16-1.63,.05-.38,.1-.77,.16-1.15,.06-.4,.13-.8,.21-1.19,.06-.31,.13-.62,.2-.94,.07-.34,.13-.68,.22-1.01,.02-.07,.05-.13,.07-.2,2.11-8.17,7.15-15.47,14.35-20.31,.03-.02,.05-.04,.07-.06,.16-.11,.34-.21,.5-.31,.31-.2,.63-.4,.95-.59,.23-.14,.46-.27,.69-.4,.35-.2,.7-.39,1.06-.58,.22-.11,.43-.23,.65-.34,.4-.2,.81-.39,1.23-.57,.18-.08,.37-.17,.55-.25,.6-.26,1.21-.5,1.83-.73,0,0,0,0,0,0s0,0,0,0c18.12-6.6,38.23,2.78,44.83,20.9Z"/>
    <path class="cls-2" d="M15.36,105.71l16.68,28.88c-3.97-11.61-3.33-24.43,1.79-35.6l-18.47,6.72Z"/>
    <polygon class="cls-2" points="15.52 94.01 12.25 99.67 22 96.12 20.56 92.18 15.52 94.01"/>
    <path class="cls-2" d="M56.91,162.42c-6.05-2.87-11.38-6.97-15.71-11.95l8.43,14.6,7.28-2.65Z"/>
  </g>
</svg>