<?xml version="1.0" encoding="UTF-8"?>
<svg id="Capa_1" data-name="Capa 1" xmlns="http://www.w3.org/2000/svg" viewBox="0 0 200 200">
  <defs>
    <style>
      .cls-1 {
        fill: #fff;
      }

      .cls-2 {
        fill: #a60052;
      }
    </style>
  </defs>
  <polygon class="cls-1" points="147.5 17.73 52.5 17.73 5 100 52.5 182.27 147.5 182.27 195 100 147.5 17.73"/>
  <g>
    <path class="cls-2" d="M143.92,23.93H56.08L12.16,100l6.88,11.92c1.18-1.03,2.53-1.85,4.04-2.41l6.33-2.35-5.09-13.76c-2.49-6.74,.96-14.25,7.7-16.74l70.76-26.2c6.74-2.49,14.25,.96,16.74,7.69l14.52,39.22c1.21,3.26,1.07,6.8-.38,9.96-1.45,3.17-4.05,5.57-7.31,6.78l-6.33,2.34,5.09,13.76c2.49,6.74-.96,14.25-7.69,16.74l-37.73,13.97-6.1,15.13h70.35l43.92-76.07L143.92,23.93Z"/>
    <path class="cls-2" d="M69.48,131.59c.65,.3,1.37,.32,2.03,.08,1.38-.51,2.08-2.04,1.57-3.42-.25-.67-.74-1.2-1.38-1.49-.36-.16-.73-.24-1.11-.24-.31,0-.62,.06-.92,.17-.66,.25-1.19,.74-1.49,1.38-.3,.65-.32,1.37-.08,2.03,.25,.67,.74,1.2,1.38,1.49Z"/>
    <path class="cls-2" d="M47.39,140.59h0c1.38-.51,2.08-2.04,1.57-3.42-.4-1.07-1.42-1.74-2.5-1.74-.3,0-.62,.05-.92,.17-1.38,.51-2.08,2.04-1.57,3.42,.51,1.38,2.05,2.08,3.42,1.57Z"/>
    <path class="cls-2" d="M22.45,117.83l27.26,47.22,7.78-2.88c.37-.14,.76-.2,1.13-.2,1.33,0,2.59,.82,3.07,2.14l4.43,11.97h.38l7.63-18.93c.35-.86,1.04-1.53,1.9-1.85l39.09-14.47c3.35-1.24,5.07-4.97,3.83-8.32l-14.52-39.22c-.45-1.22-1.24-2.26-2.29-3.01-1.76-1.26-4.01-1.56-6.03-.82L25.36,115.66c-1.18,.43-2.17,1.19-2.91,2.17Zm63.89-1.43c1.03-2.24,2.86-3.94,5.17-4.79,4.76-1.76,10.07,.68,11.83,5.44,1.76,4.76-.68,10.07-5.44,11.83-1.04,.38-2.12,.58-3.19,.58-1.31,0-2.62-.28-3.85-.85-2.24-1.03-3.94-2.86-4.79-5.17-.85-2.3-.76-4.81,.27-7.04Zm-18.95,4.14h0c2.3-.85,4.8-.76,7.04,.27,2.24,1.03,3.94,2.86,4.79,5.17,1.76,4.76-.68,10.07-5.44,11.83-1.05,.39-2.13,.57-3.19,.57-3.74,0-7.27-2.3-8.65-6.01-1.76-4.76,.68-10.07,5.44-11.83Zm-29.29,13.72c1.03-2.24,2.86-3.94,5.17-4.79h0c4.76-1.76,10.07,.68,11.83,5.44,.85,2.3,.76,4.8-.27,7.04-1.03,2.24-2.86,3.94-5.17,4.79-1.05,.39-2.13,.57-3.19,.57-3.75,0-7.27-2.3-8.65-6.01-.85-2.3-.76-4.81,.27-7.04Z"/>
    <path class="cls-2" d="M93.84,83.32c1.49-.55,3.03-.82,4.55-.82,3.95,0,7.76,1.81,10.29,5.09,.26,.34,.51,.69,.73,1.06,.46,.74,.85,1.54,1.16,2.36l7.15,19.32,6.33-2.34c3.35-1.24,5.07-4.97,3.83-8.32l-14.52-39.22c-1.24-3.35-4.98-5.07-8.33-3.83l-70.76,26.2c-1.62,.6-2.91,1.8-3.63,3.37-.72,1.57-.79,3.33-.19,4.95l5.09,13.76,58.28-21.58Z"/>
    <path class="cls-2" d="M93.6,122.66c.65,.3,1.37,.33,2.03,.08,1.37-.51,2.08-2.04,1.57-3.42-.25-.66-.74-1.19-1.38-1.49-.36-.16-.73-.24-1.11-.24-.31,0-.62,.06-.92,.17-1.38,.51-2.08,2.04-1.57,3.42,.25,.66,.74,1.19,1.39,1.49Z"/>
  </g>
</svg>