<?xml version="1.0" encoding="UTF-8"?>
<svg id="Capa_1" data-name="Capa 1" xmlns="http://www.w3.org/2000/svg" viewBox="0 0 200 200">
  <defs>
    <style>
      .cls-1 {
        fill: #fff;
      }

      .cls-2 {
        fill: #5d3080;
      }
    </style>
  </defs>
  <polygon class="cls-1" points="147.5 17.73 52.5 17.73 5 100 52.5 182.27 147.5 182.27 195 100 147.5 17.73"/>
  <g>
    <polygon class="cls-2" points="141.76 162.27 93.38 176.07 114 176.07 143.12 167.76 141.76 162.27"/>
    <path class="cls-2" d="M66.57,175.7l2.68-.77c-3.73-4.38-5.81-9.01-6.33-14.09-.62-6.11,1.1-11.86,2.76-17.42,2.22-7.42,4.32-14.45,.81-22.06-6.21,1.59-11.78,6.12-17.01,13.81-.49,.73-1.22,1.26-2.04,1.49-.89,.25-1.82,.15-2.64-.27l-12.66-6.63c-1.16-.61-1.94-1.83-2.03-3.19l-.89-13.41c-.07-1.05,.28-2.11,.96-2.89l29.28-33.36c-3.62-.52-7.7-.63-12.6-.36-2.09,.12-3.93-1.2-4.61-3.27-.66-2.02,0-4.23,1.64-5.49l9.52-7.32c1.34-1.03,2.54-1.12,3.5-1.19l.1,1.43-.1-1.43c8.97-.64,17.86,.56,26.42,3.57l4.33,1.7c3.22,1.39,6.33,3.03,9.3,4.89l4.42,3.01c9.74,7.2,17.7,16.91,23.06,28.13l2.21,5.09c2.07,5.26,2.95,8.92,3.33,10.48,.07,.28,.12,.49,.15,.62l9.41,38.08,3.86-1.1c.94-.27,1.92-.14,2.77,.35,.88,.51,1.54,1.39,1.79,2.42l2.16,8.75,37.69-65.28L143.92,23.93H56.08L12.16,100l43.92,76.07h9.65c.26-.16,.54-.29,.84-.38Z"/>
    <path class="cls-2" d="M70.29,160.02c.46,4.48,2.75,8.48,7.21,12.56l54.93-15.68-9.65-39.03c-7.84-31.7-35.3-53.02-65.35-50.85l-2.26,1.74c11.78,.58,20.54,4.26,30.23,12.47,1.57,1.33,1.84,3.69,.6,5.37-.62,.84-1.51,1.37-2.52,1.49-1,.12-1.97-.18-2.75-.84-4.68-3.97-8.76-6.53-13.07-8.21l-30.94,35.25,.64,9.54,8,4.19c8.56-11.35,18.36-16.2,29.91-14.83,.44,.05,.88-.01,1.26-.2,4.43-2.13,7-4.42,7.86-7.01,.71-2.13,.33-4.71-1.15-7.9-.87-1.88-.14-4.18,1.64-5.14,.88-.47,1.88-.56,2.82-.25,.96,.32,1.76,1.05,2.21,2,2.36,5.06,2.86,9.72,1.49,13.83-1.56,4.68-5.4,8.44-11.76,11.5-1.6,.77-3.4,1.06-5.2,.85-.04,0-.07,0-.11-.01,3.12,9.2,.64,17.48-1.56,24.86-1.5,5.03-2.93,9.77-2.46,14.29Z"/>
    <polygon class="cls-2" points="142.13 176.07 143.92 176.07 144.27 175.46 142.13 176.07"/>
  </g>
</svg>