<?xml version="1.0" encoding="UTF-8"?>
<svg id="Capa_1" data-name="Capa 1" xmlns="http://www.w3.org/2000/svg" viewBox="0 0 200 200">
  <defs>
    <style>
      .cls-1 {
        fill: #fff;
      }

      .cls-2 {
        fill: #6791c6;
      }
    </style>
  </defs>
  <polygon class="cls-1" points="147.5 17.73 52.5 17.73 5 100 52.5 182.27 147.5 182.27 195 100 147.5 17.73"/>
  <g>
    <path class="cls-2" d="M139.39,134.36l-22.53-61.89L17.21,108.74l16.49,28.56,7.11-15.26c.43-.97,1.3-1.77,2.37-2.16,1.07-.39,2.25-.33,3.24,.16,.97,.45,1.74,1.29,2.13,2.35,.38,1.05,.33,2.19-.14,3.21l-7.19,15.42,15.69,7.31c.97,.43,1.78,1.3,2.17,2.37,.39,1.07,.33,2.25-.16,3.24-.41,.93-1.28,1.73-2.35,2.12-1.07,.39-2.25,.33-3.24-.16l-12.15-5.66,13.04,22.58,81-29.48c3.63-1.32,5.51-5.35,4.19-8.98Zm-64.34,13.86c-.05,1.07-.57,2.13-1.42,2.88-.4,.35-.86,.62-1.35,.8-.55,.2-1.14,.28-1.72,.24-1.08-.07-2.1-.57-2.84-1.41-.74-.84-1.11-1.92-1.04-3.03l2.57-40.93c.07-1.11,.57-2.14,1.42-2.88,.84-.74,1.95-1.11,3.04-1.04,1.1,.07,2.13,.57,2.87,1.41,.74,.84,1.11,1.92,1.04,3.03l-2.57,40.93Zm38.91-30.28l-8.95,19.19c-.43,.97-1.3,1.78-2.37,2.16-1.07,.39-2.25,.33-3.24-.15-2.06-.96-2.97-3.46-1.99-5.55l7.19-15.43-15.69-7.31c-.97-.43-1.77-1.3-2.16-2.37-.39-1.07-.33-2.25,.15-3.24,.41-.93,1.28-1.74,2.35-2.13t0,0c1.07-.39,2.25-.33,3.24,.15l19.45,9.07c.97,.43,1.77,1.3,2.16,2.37,.39,1.07,.33,2.25-.15,3.24Z"/>
    <path class="cls-2" d="M102.33,53.03L22.5,82.09l-10.34,17.91,1.68,2.9,100.76-36.67-3.28-9.01c-1.32-3.63-5.35-5.51-8.98-4.19ZM21.89,93.94c-1.36,.5-2.87-.21-3.37-1.57-.5-1.36,.21-2.87,1.57-3.37,1.36-.5,2.87,.21,3.37,1.57,.5,1.36-.21,2.87-1.57,3.37Zm15.53-5.65c-1.36,.5-2.87-.21-3.37-1.57-.5-1.36,.21-2.87,1.57-3.37,1.36-.5,2.87,.21,3.37,1.57,.5,1.36-.21,2.87-1.57,3.37Zm67.44-24.54l-51.67,18.81c-1.36,.5-2.87-.21-3.37-1.57-.5-1.36,.21-2.87,1.57-3.37l51.67-18.81c1.36-.5,2.87,.21,3.37,1.57,.5,1.36-.21,2.87-1.57,3.37Z"/>
    <path class="cls-2" d="M143.92,23.93H56.08l-28.42,49.22,72.4-26.35c7.07-2.57,14.92,1.08,17.49,8.16l28.08,77.14c2.57,7.07-1.09,14.92-8.16,17.49l-72.79,26.49h79.23l43.92-76.07L143.92,23.93Z"/>
  </g>
</svg>