<svg width="273" height="498" viewBox="0 0 273 498" fill="none" xmlns="http://www.w3.org/2000/svg">
<path d="M237.248 0.0975952H35.9399C17.86 0.0975952 3.20337 13.8675 3.20337 30.8536V467.008C3.20337 483.994 17.86 497.764 35.9399 497.764H237.248C255.328 497.764 269.985 483.994 269.985 467.008V30.8536C269.985 13.8675 255.328 0.0975952 237.248 0.0975952Z" fill="url(#paint0_linear_4_34)"/>
<path d="M264.843 463.998L264.843 33.8632C264.843 17.8686 251.041 4.90239 234.017 4.90239L39.1152 4.90239C22.0907 4.90239 8.28952 17.8686 8.28952 33.8632L8.28952 463.998C8.28952 479.993 22.0907 492.959 39.1152 492.959H234.017C251.041 492.959 264.843 479.993 264.843 463.998Z" fill="black"/>
<path d="M259.728 32.9656L259.728 464.896C259.728 477.726 248.629 488.154 234.972 488.154H38.1598C24.5032 488.154 13.4037 477.726 13.4037 464.896L13.4037 32.9656C13.4037 20.1352 24.5032 9.7072 38.1598 9.7072L234.972 9.7072C248.629 9.7072 259.728 20.1352 259.728 32.9656Z" fill="url(#paint1_linear_4_34)"/>
<path style="mix-blend-mode:screen" d="M261.077 465.767V32.0944C261.077 22.696 256.412 14.3272 249.135 8.91519C258.52 14.0368 264.843 23.5936 264.843 34.4968V463.365C264.843 474.268 258.52 483.825 249.135 488.946C256.412 483.534 261.077 475.166 261.077 465.767Z" fill="url(#paint2_linear_4_34)"/>
<path d="M269.086 200.262H267.175V138.09H269.086C271.137 138.09 272.795 139.648 272.795 141.575V196.778C272.795 198.705 271.137 200.262 269.086 200.262Z" fill="url(#paint3_linear_4_34)"/>
<path d="M3.7092 89.7256H5.62V110.555H3.7092C1.6579 110.555 0 108.998 0 107.07V93.2104C0 91.2832 1.6579 89.7256 3.7092 89.7256Z" fill="url(#paint4_linear_4_34)"/>
<path d="M3.7092 124.811H5.62V164.068H3.7092C1.6579 164.068 0 162.51 0 160.583V128.296C0 126.369 1.6579 124.811 3.7092 124.811Z" fill="url(#paint5_linear_4_34)"/>
<path d="M3.7092 173.097H5.62V212.354H3.7092C1.6579 212.354 0 210.796 0 208.869V176.582C0 174.654 1.6579 173.097 3.7092 173.097Z" fill="url(#paint6_linear_4_34)"/>
<path style="mix-blend-mode:screen" d="M12.083 465.767V32.0944C12.083 22.696 16.7476 14.3272 24.0255 8.91519C14.6401 14.0368 8.31757 23.5936 8.31757 34.4968V463.365C8.31757 474.268 14.6401 483.825 24.0255 488.946C16.7476 483.534 12.083 475.166 12.083 465.767Z" fill="url(#paint7_linear_4_34)"/>
<path d="M257.508 462.731V33.2032C257.508 20.2267 246.312 9.7072 232.499 9.7072L40.2954 9.7072C26.4834 9.7072 15.2864 20.2267 15.2864 33.2032L15.2864 462.731C15.2864 475.708 26.4834 486.227 40.2954 486.227H232.499C246.312 486.227 257.508 475.708 257.508 462.731Z" fill="white"/>
<mask id="mask0_4_34" style="mask-type:luminance" maskUnits="userSpaceOnUse" x="15" y="9" width="243" height="478">
<path d="M257.508 462.731V33.2032C257.508 20.2267 246.312 9.7072 232.499 9.7072L40.2954 9.7072C26.4834 9.7072 15.2864 20.2267 15.2864 33.2032L15.2864 462.731C15.2864 475.708 26.4834 486.227 40.2954 486.227H232.499C246.312 486.227 257.508 475.708 257.508 462.731Z" fill="white"/>
</mask>
<g mask="url(#mask0_4_34)">
<path d="M257.508 486.227L257.508 9.7072L15.2864 9.7072L15.2864 486.227H257.508Z" fill="white"/>
</g>
<path d="M65.6697 9.7072C67.3276 10.7368 70.1095 13.06 70.5872 17.0728C71.2616 22.828 73.6501 29.8768 83.7099 29.8768H189.085C199.145 29.8768 201.533 22.828 202.208 17.0728C202.685 13.06 205.467 10.7368 207.125 9.7072H65.6697Z" fill="black"/>
<path d="M151.515 16.0432H121.251C120.32 16.0432 119.565 16.7524 119.565 17.6272V18.2344C119.565 19.1092 120.32 19.8184 121.251 19.8184H151.515C152.446 19.8184 153.201 19.1092 153.201 18.2344V17.6272C153.201 16.7524 152.446 16.0432 151.515 16.0432Z" fill="url(#paint8_linear_4_34)"/>
<path d="M169.106 18.472C169.106 20.32 167.504 21.8248 165.537 21.8248C163.57 21.8248 161.968 20.32 161.968 18.472C161.968 16.624 163.57 15.1192 165.537 15.1192C167.504 15.1192 169.106 16.624 169.106 18.472Z" fill="black"/>
<path d="M170.651 18.472C170.651 21.1384 168.347 23.2768 165.537 23.2768C162.727 23.2768 160.423 21.112 160.423 18.472C160.423 15.832 162.727 13.6672 165.537 13.6672C168.347 13.6672 170.651 15.832 170.651 18.472Z" fill="url(#paint9_linear_4_34)"/>
<path style="mix-blend-mode:multiply" d="M169.724 18.472C169.724 20.6368 167.841 22.4056 165.537 22.4056C163.233 22.4056 161.35 20.6368 161.35 18.472C161.35 16.3072 163.233 14.5384 165.537 14.5384C167.841 14.5384 169.724 16.3072 169.724 18.472Z" fill="url(#paint10_linear_4_34)"/>
<path d="M169.106 18.472C169.106 20.32 167.504 21.8248 165.537 21.8248C163.57 21.8248 161.968 20.32 161.968 18.472C161.968 16.624 163.57 15.1192 165.537 15.1192C167.504 15.1192 169.106 16.624 169.106 18.472Z" fill="url(#paint11_linear_4_34)"/>
<path d="M169.106 18.472C169.106 20.32 167.504 21.8248 165.537 21.8248C163.57 21.8248 161.968 20.32 161.968 18.472C161.968 16.624 163.57 15.1192 165.537 15.1192C167.504 15.1192 169.106 16.624 169.106 18.472Z" fill="url(#paint12_radial_4_34)"/>
<path d="M169.106 18.472C169.106 20.32 167.504 21.8248 165.537 21.8248C163.57 21.8248 161.968 20.32 161.968 18.472C161.968 16.624 163.57 15.1192 165.537 15.1192C167.504 15.1192 169.106 16.624 169.106 18.472Z" fill="url(#paint13_radial_4_34)"/>
<path style="mix-blend-mode:screen" opacity="0.5" d="M169.106 18.472C169.106 20.32 167.504 21.8248 165.537 21.8248C163.57 21.8248 161.968 20.32 161.968 18.472C161.968 16.624 163.57 15.1192 165.537 15.1192C167.504 15.1192 169.106 16.624 169.106 18.472Z" fill="url(#paint14_radial_4_34)"/>
<defs>
<linearGradient id="paint0_linear_4_34" x1="3.20337" y1="248.944" x2="269.957" y2="248.944" gradientUnits="userSpaceOnUse">
<stop stop-color="#272425"/>
<stop offset="0.3" stop-color="#656565"/>
<stop offset="0.45" stop-color="#7F8080"/>
<stop offset="0.57" stop-color="#727272"/>
<stop offset="0.78" stop-color="#504F4F"/>
<stop offset="1" stop-color="#272425"/>
</linearGradient>
<linearGradient id="paint1_linear_4_34" x1="136.594" y1="489.369" x2="136.594" y2="7.46321" gradientUnits="userSpaceOnUse">
<stop stop-color="#4E4E4E"/>
<stop offset="1"/>
</linearGradient>
<linearGradient id="paint2_linear_4_34" x1="260.066" y1="248.944" x2="265.91" y2="248.944" gradientUnits="userSpaceOnUse">
<stop stop-opacity="0"/>
<stop offset="0.2" stop-color="#3D3D3D" stop-opacity="0.24"/>
<stop offset="0.49" stop-color="#8F8F8F" stop-opacity="0.56"/>
<stop offset="0.73" stop-color="#CBCBCB" stop-opacity="0.8"/>
<stop offset="0.91" stop-color="#F0F0F0" stop-opacity="0.94"/>
<stop offset="1" stop-color="white"/>
</linearGradient>
<linearGradient id="paint3_linear_4_34" x1="269.957" y1="138.407" x2="269.957" y2="200.579" gradientUnits="userSpaceOnUse">
<stop stop-color="#272425"/>
<stop offset="0.3" stop-color="#656565"/>
<stop offset="0.45" stop-color="#7F8080"/>
<stop offset="0.57" stop-color="#727272"/>
<stop offset="0.78" stop-color="#504F4F"/>
<stop offset="1" stop-color="#272425"/>
</linearGradient>
<linearGradient id="paint4_linear_4_34" x1="2.8381" y1="89.5936" x2="2.8381" y2="110.502" gradientUnits="userSpaceOnUse">
<stop stop-color="#272425"/>
<stop offset="0.3" stop-color="#656565"/>
<stop offset="0.45" stop-color="#7F8080"/>
<stop offset="0.57" stop-color="#727272"/>
<stop offset="0.78" stop-color="#504F4F"/>
<stop offset="1" stop-color="#272425"/>
</linearGradient>
<linearGradient id="paint5_linear_4_34" x1="2.8381" y1="125.049" x2="2.8381" y2="163.962" gradientUnits="userSpaceOnUse">
<stop stop-color="#272425"/>
<stop offset="0.3" stop-color="#656565"/>
<stop offset="0.45" stop-color="#7F8080"/>
<stop offset="0.57" stop-color="#727272"/>
<stop offset="0.78" stop-color="#504F4F"/>
<stop offset="1" stop-color="#272425"/>
</linearGradient>
<linearGradient id="paint6_linear_4_34" x1="2.8381" y1="173.097" x2="2.8381" y2="212.882" gradientUnits="userSpaceOnUse">
<stop stop-color="#272425"/>
<stop offset="0.3" stop-color="#656565"/>
<stop offset="0.45" stop-color="#7F8080"/>
<stop offset="0.57" stop-color="#727272"/>
<stop offset="0.78" stop-color="#504F4F"/>
<stop offset="1" stop-color="#272425"/>
</linearGradient>
<linearGradient id="paint7_linear_4_34" x1="13.1227" y1="-14" x2="7.24977" y2="-14" gradientUnits="userSpaceOnUse">
<stop stop-opacity="0"/>
<stop offset="0.2" stop-color="#3D3D3D" stop-opacity="0.24"/>
<stop offset="0.49" stop-color="#8F8F8F" stop-opacity="0.56"/>
<stop offset="0.73" stop-color="#CBCBCB" stop-opacity="0.8"/>
<stop offset="0.91" stop-color="#F0F0F0" stop-opacity="0.94"/>
<stop offset="1" stop-color="white"/>
</linearGradient>
<linearGradient id="paint8_linear_4_34" x1="136.397" y1="19.9504" x2="136.397" y2="15.9904" gradientUnits="userSpaceOnUse">
<stop stop-color="#4E4E4E"/>
<stop offset="0.08" stop-color="#434343"/>
<stop offset="0.31" stop-color="#252525"/>
<stop offset="0.55" stop-color="#101010"/>
<stop offset="0.78" stop-color="#040404"/>
<stop offset="1"/>
</linearGradient>
<linearGradient id="paint9_linear_4_34" x1="169.555" y1="22.2472" x2="162.416" y2="14.6206" gradientUnits="userSpaceOnUse">
<stop stop-color="#4E4E4E"/>
<stop offset="1"/>
</linearGradient>
<linearGradient id="paint10_linear_4_34" x1="168.825" y1="21.5608" x2="162.975" y2="15.3347" gradientUnits="userSpaceOnUse">
<stop/>
<stop offset="1" stop-color="#4E4E4E"/>
</linearGradient>
<linearGradient id="paint11_linear_4_34" x1="162.924" y1="15.9904" x2="168.273" y2="21.6836" gradientUnits="userSpaceOnUse">
<stop stop-color="#3259E2"/>
<stop offset="0.69" stop-opacity="0"/>
</linearGradient>
<radialGradient id="paint12_radial_4_34" cx="0" cy="0" r="1" gradientUnits="userSpaceOnUse" gradientTransform="translate(165.818 21.7984) scale(3.5687 3.3528)">
<stop stop-color="#3259E2"/>
<stop offset="0.86" stop-opacity="0"/>
</radialGradient>
<radialGradient id="paint13_radial_4_34" cx="0" cy="0" r="1" gradientUnits="userSpaceOnUse" gradientTransform="translate(168.909 17.416) scale(2.3323 2.1912)">
<stop stop-color="#3259E2"/>
<stop offset="0.7" stop-opacity="0"/>
</radialGradient>
<radialGradient id="paint14_radial_4_34" cx="0" cy="0" r="1" gradientUnits="userSpaceOnUse" gradientTransform="translate(163.345 19.5808) scale(3.5406 3.3264)">
<stop stop-color="white"/>
<stop offset="0.15" stop-color="#BDBDBD" stop-opacity="0.74"/>
<stop offset="0.29" stop-color="#838383" stop-opacity="0.52"/>
<stop offset="0.43" stop-color="#545454" stop-opacity="0.33"/>
<stop offset="0.57" stop-color="#2F2F2F" stop-opacity="0.19"/>
<stop offset="0.69" stop-color="#151515" stop-opacity="0.08"/>
<stop offset="0.8" stop-color="#050505" stop-opacity="0.02"/>
<stop offset="0.89" stop-opacity="0"/>
</radialGradient>
</defs>
</svg>
