<?xml version="1.0" encoding="UTF-8"?>
<svg id="Capa_1" data-name="Capa 1" xmlns="http://www.w3.org/2000/svg" viewBox="0 0 200 200">
  <defs>
    <style>
      .cls-1 {
        fill: #FFFFFF;
      }
    </style>
  </defs>
  <g>
    <g>
      <path class="cls-1" d="M56.66,71.88c0-23.94,19.41-43.34,43.34-43.34,12.04,0,22.92,4.91,30.78,12.83,.33,.33,.66,.67,.97,1.01,.12,.13,.23,.25,.35,.38,.33,.36,.65,.73,.97,1.1,.08,.09,.16,.18,.23,.27,.8,.96,1.56,1.95,2.27,2.98,1.72,2.47,3.2,5.13,4.38,7.94,1.43-.96,2.79-1.97,4.06-3.02-1.36-3.02-3.04-5.88-4.97-8.53h0c-.06-.08-.12-.16-.18-.24-.27-.37-.55-.74-.84-1.1-.11-.14-.22-.28-.33-.42-.1-.12-.19-.24-.28-.36h0c-.77-.94-1.57-1.85-2.41-2.74,0,0,0-.02-.01-.02-.33-.35-.68-.7-1.02-1.04,0,0-.02-.02-.03-.03h0c-8.72-8.62-20.71-13.95-33.94-13.95-26.66,0-48.27,21.61-48.27,48.27,0,4.39,.59,8.65,1.69,12.7,1.38-.93,2.85-1.84,4.4-2.71-.76-3.21-1.16-6.55-1.16-9.98Z"/>
      <path class="cls-1" d="M146.79,59.98c-.83,.58-1.7,1.16-2.6,1.72-.59,.37-1.19,.73-1.81,1.09,.63,2.93,.96,5.97,.96,9.09,0,23.94-19.41,43.34-43.34,43.34-12.7,0-24.12-5.47-32.05-14.17-.09-.1-.19-.2-.28-.31-.26-.29-.51-.58-.76-.88-.08-.09-.16-.18-.23-.27-.29-.35-.58-.71-.86-1.07-.06-.07-.11-.14-.17-.22-2.18-2.83-4.03-5.94-5.46-9.27-1.44,.92-2.81,1.9-4.1,2.92,1.37,3,3.04,5.82,4.97,8.45h0c.05,.07,.1,.13,.15,.2,.28,.37,.56,.74,.84,1.1,.1,.13,.2,.25,.3,.37,.16,.2,.32,.41,.49,.6h0c.57,.68,1.15,1.35,1.76,2.01,0,0,0,0,0,0,.32,.34,.64,.68,.97,1.01,.05,.05,.09,.1,.14,.14h0c8.75,8.82,20.87,14.29,34.28,14.29,26.66,0,48.27-21.61,48.27-48.27,0-4.11-.51-8.1-1.48-11.9Z"/>
    </g>
    <path class="cls-1" d="M80.52,98.61s6.19-19.61,32.39-26.11c.66-.35,47.07-10.47,47.07-39.16v-.5s-.01,0-.01,0c0,0,0,0,0,0-.22-6.46-5.63-11.52-12.09-11.3-6.46,.22-11.52,5.63-11.3,12.09,.08,2.5,.95,4.78,2.35,6.64-1.01-1.45-1.63-3.2-1.69-5.1-.18-5.27,3.95-9.68,9.21-9.86,5.27-.18,9.68,3.95,9.86,9.21,0,0,0,0,0,0h0c.65,19.28-27.37,31-46.7,36.77h0s-32.36,8.2-38.99,29.49l9.89-2.18h0Z"/>
    <path class="cls-1" d="M70.38,100.58l-.13,.3c.13-.03,.25-.07,.38-.1l-.24-.2Z"/>
    <path class="cls-1" d="M110.26,74.96c-.07,.02-.23,.06-.46,.13l10.06,23.52c3.36,.61,6.66,1.37,9.9,2.28l-12.26-27.84c-2.33,.67-4.74,1.31-7.23,1.91Z"/>
    <path class="cls-1" d="M90.39,74.06c10.81-2.92,19.22-4.07,19.22-4.07,0,0-8.33,.67-19.22,3-20.47,4.94-51.15,14.67-50.36,37.94h0s0,0,0,0c.22,6.46,5.63,11.52,12.09,11.3,6.46-.22,11.52-5.63,11.3-12.09-.08-2.5-.95-4.78-2.35-6.64,1.01,1.45,1.63,3.2,1.69,5.1,.18,5.27-3.95,9.68-9.21,9.86-5.27,.18-9.68-3.95-9.86-9.21,0,0,0,0,0,0h0c-.65-19.28,27.37-29.42,46.7-35.19Z"/>
    <path class="cls-1" d="M89.76,70.39l.07-.02c.89-.19,1.76-.37,2.62-.54l7.55-17.66,7.22,16.95c1.68-.19,5.72-1.66,7.54-2.27l-14.76-33.52-17.1,38.81c2.45-.67,4.77-1.25,6.86-1.76Z"/>
  </g>
  <path class="cls-1" d="M159.95,177.95h-3.41v-30.57h4.42c5.8,0,11.19,1.54,11.19,8.43,0,4.7-2.96,8.03-7.66,8.43l9.73,13.71h-4.18l-9.25-13.42h-.85v13.42Zm0-16.42h1.05c3.85,0,7.75-.73,7.75-5.47,0-5.03-3.69-5.51-7.79-5.51h-1.01v10.99Z"/>
  <path class="cls-1" d="M59.79,147.37h5.76c4.58,0,8.31,.61,11.92,3.69,3.49,3,5.07,7.1,5.07,11.64s-1.62,8.39-4.99,11.39c-3.65,3.24-7.3,3.85-12.08,3.85h-5.68v-30.57Zm5.88,27.41c3.73,0,6.85-.53,9.65-3.16,2.51-2.35,3.81-5.56,3.81-8.96s-1.34-6.85-3.97-9.16c-2.8-2.47-5.88-2.96-9.49-2.96h-2.47v24.25h2.47Z"/>
  <polygon class="cls-1" points="181.25 145.91 170.57 170.17 172.83 173.35 174.56 169.27 175.94 166.11 181.17 153.86 186.28 166.11 187.62 169.27 191.23 177.95 195 177.95 181.25 145.91"/>
  <g>
    <g>
      <path class="cls-1" d="M16.35,164.36l6.22-14.54,4.24,9.91c.87-.24,1.76-.45,2.66-.63,.62-.12,1.25-.27,1.88-.43l-8.78-19.92-14.35,32.57c2.38-2.7,5.11-5.05,8.13-6.97Z"/>
      <path class="cls-1" d="M30.66,163.1l-.11,.03c-.7,.15-1.38,.33-2.06,.54l5.74,13.43c1.97,.36,3.91,.81,5.81,1.34l-7.03-15.96c-.82,.24-1.61,.45-2.35,.63Z"/>
    </g>
    <path class="cls-1" d="M32.47,161.15l-.51-1.16c-.75,.2-1.49,.38-2.22,.52h0c-10.85,2.14-19.64,8.86-24.74,17.76,1.94-.63,3.93-1.16,5.95-1.59,3.72-7.37,10.6-13.07,19.3-14.96,0,0,0,0,.01,0h0c.71-.17,1.44-.36,2.2-.58Z"/>
  </g>
  <g>
    <g>
      <path class="cls-1" d="M103.94,164.36l6.22-14.54,4.24,9.91c.87-.24,1.76-.45,2.66-.63,.62-.12,1.25-.27,1.88-.43l-8.78-19.92-14.35,32.57c2.38-2.7,5.11-5.05,8.13-6.97Z"/>
      <path class="cls-1" d="M118.25,163.1l-.11,.03c-.7,.15-1.38,.33-2.06,.54l5.74,13.43c1.97,.36,3.91,.81,5.81,1.34l-7.03-15.96c-.82,.24-1.61,.45-2.35,.63Z"/>
    </g>
    <path class="cls-1" d="M120.06,161.15l-.51-1.16c-.75,.2-1.49,.38-2.22,.52h0c-10.85,2.14-19.64,8.86-24.74,17.76,1.94-.63,3.93-1.16,5.95-1.59,3.72-7.37,10.6-13.07,19.3-14.96,0,0,0,0,.01,0h0c.71-.17,1.44-.36,2.2-.58Z"/>
  </g>
  <path class="cls-1" d="M53.03,151.06c-3.61-3.08-7.34-3.69-11.92-3.69h-5.76v16.63l3.41,7.66v-21.13h2.47c3.61,0,6.69,.49,9.49,2.96,2.64,2.31,3.97,5.68,3.97,9.16s-1.3,6.61-3.81,8.96c-2.8,2.64-5.92,3.16-9.65,3.16h-1.09l1.41,3.16c4.53-.05,8.05-.72,11.56-3.85,3.37-3,4.99-6.93,4.99-11.39s-1.58-8.64-5.07-11.64Z"/>
  <path class="cls-1" d="M133.06,160.43l-2.03-.89c-2.07-.93-4.79-2.15-4.79-4.78,0-2.8,2.35-4.74,5.07-4.74s4.06,1.22,5.27,3.32l2.72-1.74c-1.62-3-4.5-4.74-7.91-4.74-4.54,0-8.56,3.04-8.56,7.79,0,4.38,3.08,6.2,6.65,7.83l1.87,.81c2.84,1.3,5.64,2.51,5.64,6.08s-3,5.96-6.29,5.96c-1.15,0-2.19-.32-3.07-.86l1.75,3.92c.46,.06,.92,.1,1.41,.1,5.31,0,9.61-4.1,9.61-9.45,0-4.87-3.37-6.85-7.34-8.6Z"/>
  <path class="cls-1" d="M137,147.37v.02c1.22,.75,2.24,1.82,3.02,3.14h4.36v27.41h3.41v-27.41h7.46v-3.16h-18.25Z"/>
</svg>