<svg width="983" height="226" viewBox="0 0 983 226" fill="none" xmlns="http://www.w3.org/2000/svg">
<path id="path_line" d="M61 224L59.5857 224.5L61 225.5V224ZM225 224V225.5L226.208 224.889L225 224ZM289 137V135.5L287.792 136.111L289 137ZM459 137L459.827 135.748L459 135.5V137ZM515 174L514.173 175.252L515 175.5V174ZM689 174V175.5L690.426 174.464L689 174ZM745 2V0.5L743.574 1.53562L745 2ZM919 2L920.246 1.16469L919 0.5V2ZM977.71 91.4716C978.522 91.632 979.311 91.1031 979.472 90.2903L982.085 77.0456C982.245 76.2328 981.716 75.444 980.903 75.2836C980.09 75.1233 979.302 75.6522 979.141 76.465L976.819 88.238L965.046 85.9155C964.233 85.7551 963.444 86.284 963.284 87.0968C963.123 87.9095 963.652 88.6984 964.465 88.8587L977.71 91.4716ZM2.69281 63.464L3.19249 64.8783L6.02115 63.8789L5.52147 62.4646L2.69281 63.464ZM9.73576 74.3932L9.23609 72.9789L6.40743 73.9782L6.9071 75.3925L9.73576 74.3932ZM11.1214 87.3211L11.6211 88.7354L14.4497 87.7361L13.95 86.3218L11.1214 87.3211ZM18.1643 98.2503L17.6647 96.836L14.836 97.8353L15.3357 99.2497L18.1643 98.2503ZM19.55 111.178L20.0496 112.593L22.8783 111.593L22.3786 110.179L19.55 111.178ZM26.5929 122.107L26.0932 120.693L23.2646 121.692L23.7642 123.107L26.5929 122.107ZM27.9785 135.035L28.4782 136.45L31.3069 135.45L30.8072 134.036L27.9785 135.035ZM35.0215 145.965L34.5218 144.55L31.6931 145.55L32.1928 146.964L35.0215 145.965ZM36.4071 158.893L36.9068 160.307L39.7354 159.308L39.2358 157.893L36.4071 158.893ZM43.45 169.822L42.9504 168.407L40.1217 169.407L40.6214 170.821L43.45 169.822ZM44.8357 182.75L45.3353 184.164L48.164 183.165L47.6643 181.75L44.8357 182.75ZM51.8786 193.679L51.3789 192.265L48.5503 193.264L49.05 194.678L51.8786 193.679ZM53.2642 206.607L53.7639 208.021L56.5926 207.022L56.0929 205.607L53.2642 206.607ZM60.3072 217.536L59.8075 216.122L56.9789 217.121L57.4785 218.535L60.3072 217.536ZM66.8571 225.5H68.3571V222.5H66.8571V225.5ZM78.5714 222.5H77.0714V225.5H78.5714V222.5ZM90.2857 225.5H91.7857V222.5H90.2857V225.5ZM102 222.5H100.5V225.5H102V222.5ZM113.714 225.5H115.214V222.5H113.714V225.5ZM125.429 222.5H123.929V225.5H125.429V222.5ZM137.143 225.5H138.643V222.5H137.143V225.5ZM148.857 222.5H147.357V225.5H148.857V222.5ZM160.571 225.5H162.071V222.5H160.571V225.5ZM172.286 222.5H170.786V225.5H172.286V222.5ZM184 225.5H185.5V222.5H184V225.5ZM195.714 222.5H194.214V225.5H195.714V222.5ZM207.429 225.5H208.929V222.5H207.429V225.5ZM219.143 222.5H217.643V225.5H219.143V222.5ZM229.408 220.539L230.297 219.331L227.881 217.553L226.992 218.761L229.408 220.539ZM233.392 210.061L232.503 211.269L234.919 213.047L235.808 211.839L233.392 210.061ZM242.208 203.139L243.097 201.931L240.681 200.153L239.792 201.361L242.208 203.139ZM246.192 192.661L245.303 193.869L247.719 195.647L248.608 194.439L246.192 192.661ZM255.008 185.739L255.897 184.531L253.481 182.753L252.592 183.961L255.008 185.739ZM258.992 175.261L258.103 176.469L260.519 178.247L261.408 177.039L258.992 175.261ZM267.808 168.339L268.697 167.131L266.281 165.353L265.392 166.561L267.808 168.339ZM271.792 157.861L270.903 159.069L273.319 160.847L274.208 159.639L271.792 157.861ZM280.608 150.939L281.497 149.731L279.081 147.953L278.192 149.161L280.608 150.939ZM284.592 140.461L283.703 141.669L286.119 143.447L287.008 142.239L284.592 140.461ZM295.071 138.5H296.571V135.5H295.071V138.5ZM307.214 135.5H305.714V138.5H307.214V135.5ZM319.357 138.5H320.857V135.5H319.357V138.5ZM331.5 135.5H330V138.5H331.5V135.5ZM343.643 138.5H345.143V135.5H343.643V138.5ZM355.786 135.5H354.286V138.5H355.786V135.5ZM367.929 138.5H369.429V135.5H367.929V138.5ZM380.071 135.5H378.571V138.5H380.071V135.5ZM392.214 138.5H393.714V135.5H392.214V138.5ZM404.357 135.5H402.857V138.5H404.357V135.5ZM416.5 138.5H418V135.5H416.5V138.5ZM428.643 135.5H427.143V138.5H428.643V135.5ZM440.786 138.5H442.286V135.5H440.786V138.5ZM452.929 135.5H451.429V138.5H452.929V135.5ZM462.84 141.335L464.091 142.162L465.745 139.659L464.494 138.832L462.84 141.335ZM473.827 144.998L472.575 144.172L470.922 146.675L472.173 147.502L473.827 144.998ZM481.506 153.668L482.758 154.495L484.412 151.992L483.16 151.165L481.506 153.668ZM492.494 157.332L491.242 156.505L489.588 159.008L490.84 159.835L492.494 157.332ZM500.173 166.002L501.425 166.828L503.078 164.325L501.827 163.498L500.173 166.002ZM511.16 169.665L509.909 168.838L508.255 171.341L509.506 172.168L511.16 169.665ZM521.214 175.5H522.714V172.5H521.214V175.5ZM533.643 172.5H532.143V175.5H533.643V172.5ZM546.071 175.5H547.571V172.5H546.071V175.5ZM558.5 172.5H557V175.5H558.5V172.5ZM570.929 175.5H572.429V172.5H570.929V175.5ZM583.357 172.5H581.857V175.5H583.357V172.5ZM595.786 175.5H597.286V172.5H595.786V175.5ZM608.214 172.5H606.714V175.5H608.214V172.5ZM620.643 175.5H622.143V172.5H620.643V175.5ZM633.071 172.5H631.571V175.5H633.071V172.5ZM645.5 175.5H647V172.5H645.5V175.5ZM657.929 172.5H656.429V175.5H657.929V172.5ZM670.357 175.5H671.857V172.5H670.357V175.5ZM682.786 172.5H681.286V175.5H682.786V172.5ZM692.176 169.089L692.641 167.663L689.788 166.734L689.324 168.161L692.176 169.089ZM692.824 157.411L692.359 158.837L695.212 159.766L695.676 158.339L692.824 157.411ZM699.176 147.589L699.641 146.163L696.788 145.234L696.324 146.661L699.176 147.589ZM699.824 135.911L699.359 137.337L702.212 138.266L702.676 136.839L699.824 135.911ZM706.176 126.089L706.641 124.663L703.788 123.734L703.324 125.161L706.176 126.089ZM706.824 114.411L706.359 115.837L709.212 116.766L709.676 115.339L706.824 114.411ZM713.176 104.589L713.641 103.163L710.788 102.234L710.324 103.661L713.176 104.589ZM713.824 92.9106L713.359 94.3369L716.212 95.2657L716.676 93.8394L713.824 92.9106ZM720.176 83.0894L720.641 81.6631L717.788 80.7343L717.324 82.1606L720.176 83.0894ZM720.824 71.4106L720.359 72.8369L723.212 73.7657L723.676 72.3394L720.824 71.4106ZM727.176 61.5894L727.641 60.1631L724.788 59.2343L724.324 60.6606L727.176 61.5894ZM727.824 49.9106L727.359 51.3369L730.212 52.2657L730.676 50.8394L727.824 49.9106ZM734.176 40.0894L734.641 38.6631L731.788 37.7343L731.324 39.1606L734.176 40.0894ZM734.824 28.4106L734.359 29.8369L737.212 30.7657L737.676 29.3394L734.824 28.4106ZM741.176 18.5894L741.641 17.1631L738.788 16.2343L738.324 17.6606L741.176 18.5894ZM741.824 6.91062L741.359 8.33693L744.212 9.26569L744.676 7.83938L741.824 6.91062ZM751.214 3.5H752.714V0.5H751.214V3.5ZM763.643 0.5H762.143V3.5H763.643V0.5ZM776.071 3.5H777.571V0.5H776.071V3.5ZM788.5 0.5H787V3.5H788.5V0.5ZM800.929 3.5H802.429V0.5H800.929V3.5ZM813.357 0.5H811.857V3.5H813.357V0.5ZM825.786 3.5H827.286V0.5H825.786V3.5ZM838.214 0.5H836.714V3.5H838.214V0.5ZM850.643 3.5H852.143V0.5H850.643V3.5ZM863.071 0.5H861.571V3.5H863.071V0.5ZM875.5 3.5H877V0.5H875.5V3.5ZM887.929 0.5H886.429V3.5H887.929V0.5ZM900.357 3.5H901.857V0.5H900.357V3.5ZM912.786 0.5H911.286V3.5H912.786V0.5ZM921.442 8.33531L922.277 9.58121L924.769 7.91058L923.933 6.66469L921.442 8.33531ZM931.308 17.6647L930.473 16.4188L927.981 18.0894L928.817 19.3353L931.308 17.6647ZM936.192 30.3353L937.027 31.5812L939.519 29.9106L938.683 28.6647L936.192 30.3353ZM946.058 39.6647L945.223 38.4188L942.731 40.0894L943.567 41.3353L946.058 39.6647ZM950.942 52.3353L951.777 53.5812L954.269 51.9106L953.433 50.6647L950.942 52.3353ZM960.808 61.6647L959.973 60.4188L957.481 62.0894L958.317 63.3353L960.808 61.6647ZM965.692 74.3353L966.527 75.5812L969.019 73.9106L968.183 72.6647L965.692 74.3353ZM975.558 83.6647L974.723 82.4188L972.231 84.0894L973.067 85.3353L975.558 83.6647ZM0.585671 57.4997L2.69281 63.464L5.52147 62.4646L3.41433 56.5003L0.585671 57.4997ZM6.9071 75.3925L11.1214 87.3211L13.95 86.3218L9.73576 74.3932L6.9071 75.3925ZM15.3357 99.2497L19.55 111.178L22.3786 110.179L18.1643 98.2503L15.3357 99.2497ZM23.7642 123.107L27.9785 135.035L30.8072 134.036L26.5929 122.107L23.7642 123.107ZM32.1928 146.964L36.4071 158.893L39.2358 157.893L35.0215 145.965L32.1928 146.964ZM40.6214 170.821L44.8357 182.75L47.6643 181.75L43.45 169.822L40.6214 170.821ZM49.05 194.678L53.2642 206.607L56.0929 205.607L51.8786 193.679L49.05 194.678ZM57.4785 218.535L59.5857 224.5L62.4143 223.5L60.3072 217.536L57.4785 218.535ZM61 225.5H66.8571V222.5H61V225.5ZM78.5714 225.5H90.2857V222.5H78.5714V225.5ZM102 225.5H113.714V222.5H102V225.5ZM125.429 225.5H137.143V222.5H125.429V225.5ZM148.857 225.5H160.571V222.5H148.857V225.5ZM172.286 225.5H184V222.5H172.286V225.5ZM195.714 225.5H207.429V222.5H195.714V225.5ZM219.143 225.5H225V222.5H219.143V225.5ZM226.208 224.889L229.408 220.539L226.992 218.761L223.792 223.111L226.208 224.889ZM235.808 211.839L242.208 203.139L239.792 201.361L233.392 210.061L235.808 211.839ZM248.608 194.439L255.008 185.739L252.592 183.961L246.192 192.661L248.608 194.439ZM261.408 177.039L267.808 168.339L265.392 166.561L258.992 175.261L261.408 177.039ZM274.208 159.639L280.608 150.939L278.192 149.161L271.792 157.861L274.208 159.639ZM287.008 142.239L290.208 137.889L287.792 136.111L284.592 140.461L287.008 142.239ZM289 138.5H295.071V135.5H289V138.5ZM307.214 138.5H319.357V135.5H307.214V138.5ZM331.5 138.5H343.643V135.5H331.5V138.5ZM355.786 138.5H367.929V135.5H355.786V138.5ZM380.071 138.5H392.214V135.5H380.071V138.5ZM404.357 138.5H416.5V135.5H404.357V138.5ZM428.643 138.5H440.786V135.5H428.643V138.5ZM452.929 138.5H459V135.5H452.929V138.5ZM458.173 138.252L462.84 141.335L464.494 138.832L459.827 135.748L458.173 138.252ZM472.173 147.502L481.506 153.668L483.16 151.165L473.827 144.998L472.173 147.502ZM490.84 159.835L500.173 166.002L501.827 163.498L492.494 157.332L490.84 159.835ZM509.506 172.168L514.173 175.252L515.827 172.748L511.16 169.665L509.506 172.168ZM515 175.5H521.214V172.5H515V175.5ZM533.643 175.5H546.071V172.5H533.643V175.5ZM558.5 175.5H570.929V172.5H558.5V175.5ZM583.357 175.5H595.786V172.5H583.357V175.5ZM608.214 175.5H620.643V172.5H608.214V175.5ZM633.071 175.5H645.5V172.5H633.071V175.5ZM657.929 175.5H670.357V172.5H657.929V175.5ZM682.786 175.5H689V172.5H682.786V175.5ZM690.426 174.464L692.176 169.089L689.324 168.161L687.574 173.536L690.426 174.464ZM695.676 158.339L699.176 147.589L696.324 146.661L692.824 157.411L695.676 158.339ZM702.676 136.839L706.176 126.089L703.324 125.161L699.824 135.911L702.676 136.839ZM709.676 115.339L713.176 104.589L710.324 103.661L706.824 114.411L709.676 115.339ZM716.676 93.8394L720.176 83.0894L717.324 82.1606L713.824 92.9106L716.676 93.8394ZM723.676 72.3394L727.176 61.5894L724.324 60.6606L720.824 71.4106L723.676 72.3394ZM730.676 50.8394L734.176 40.0894L731.324 39.1606L727.824 49.9106L730.676 50.8394ZM737.676 29.3394L741.176 18.5894L738.324 17.6606L734.824 28.4106L737.676 29.3394ZM744.676 7.83938L746.426 2.46438L743.574 1.53562L741.824 6.91062L744.676 7.83938ZM745 3.5H751.214V0.5H745V3.5ZM763.643 3.5H776.071V0.5H763.643V3.5ZM788.5 3.5H800.929V0.5H788.5V3.5ZM813.357 3.5H825.786V0.5H813.357V3.5ZM838.214 3.5H850.643V0.5H838.214V3.5ZM863.071 3.5H875.5V0.5H863.071V3.5ZM887.929 3.5H900.357V0.5H887.929V3.5ZM912.786 3.5H919V0.5H912.786V3.5ZM917.754 2.83531L921.442 8.33531L923.933 6.66469L920.246 1.16469L917.754 2.83531ZM928.817 19.3353L936.192 30.3353L938.683 28.6647L931.308 17.6647L928.817 19.3353ZM943.567 41.3353L950.942 52.3353L953.433 50.6647L946.058 39.6647L943.567 41.3353ZM958.317 63.3353L965.692 74.3353L968.183 72.6647L960.808 61.6647L958.317 63.3353ZM973.067 85.3353L976.754 90.8353L979.246 89.1647L975.558 83.6647L973.067 85.3353Z" fill="#1969A3"/>
</svg>
